<?xml version="1.0" encoding="utf-8"?>
<!-- Generator: Adobe Illustrator 14.0.0, SVG Export Plug-In . SVG Version: 6.00 Build 43363)  -->
<!DOCTYPE svg PUBLIC "-//W3C//DTD SVG 1.1//EN" "http://www.w3.org/Graphics/SVG/1.1/DTD/svg11.dtd">
<svg version="1.1" id="Layer_1" xmlns="http://www.w3.org/2000/svg" xmlns:xlink="http://www.w3.org/1999/xlink" x="0px" y="0px"
	 width="118.75px" height="25px" viewBox="0 0 118.75 25" enable-background="new 0 0 118.75 25" xml:space="preserve">
<polygon fill="#0062AC" points="6.239,11.824 17.662,3.07 21.467,3.07 13.854,11.824 21.435,11.824 21.435,13.347 13.854,13.347 
	21.467,22.102 17.662,22.102 6.239,13.347 2.432,13.347 3.955,11.824 "/>
<g>
	<defs>
		<rect id="SVGID_1_" x="2.431" y="3.071" width="113.387" height="19.031"/>
	</defs>
	<clipPath id="SVGID_2_">
		<use xlink:href="#SVGID_1_"  overflow="visible"/>
	</clipPath>
	<path clip-path="url(#SVGID_2_)" fill-rule="evenodd" clip-rule="evenodd" fill="#0062AC" d="M28.948,10.147v1.442h6.819v2.005
		h-6.819v1.454h7.489v2.306h-10.21V7.828h10.208v2.319H28.948 M37.794,17.354V7.828h4.579l3.205,5.949l3.204-5.949h4.659v9.526
		h-2.729v-6.78H50.6l-3.678,6.78h-2.69l-3.652-6.785H40.51v6.785H37.794z M54.811,17.354V7.828h8.03c1.998,0,2.967,0.864,2.967,2.66
		c0,1.024-0.417,1.65-1.312,2.017c1.127,0.199,1.618,0.904,1.618,2.268c0,1.835-0.882,2.581-2.856,2.581H54.811z M63.013,10.75
		c0-0.471-0.282-0.786-0.698-0.786h-4.78v1.572h4.78C62.767,11.536,63.013,11.262,63.013,10.75 M63.308,14.314
		c0-0.511-0.295-0.838-0.748-0.838h-5.025v1.717h5.025C63.038,15.193,63.308,14.876,63.308,14.314 M87.508,13.477l-1.824-3.368
		l-1.784,3.368H87.508z M78.763,17.354l5.137-9.526h3.659l5.049,9.526h-3.158l-0.906-1.586h-5.732l-0.919,1.586H78.763z
		 M106.879,10.199v2.332h5.188c0.76,0,0.981-0.353,0.981-1.257c0-0.734-0.282-1.075-0.981-1.075H106.879z M115.818,10.946
		c0,1.572-0.368,2.36-1.483,2.648c0.932,0.235,1.409,0.838,1.409,1.809v1.951h-2.72V15.9c0-0.813-0.332-0.983-1.228-0.983h-4.918
		v2.437h-2.732V7.828h8.018C114.862,7.828,115.818,8.47,115.818,10.946 M69.898,10.199v2.332h5.187c0.759,0,0.98-0.353,0.98-1.257
		c0-0.734-0.282-1.075-0.98-1.075H69.898z M78.835,10.946c0,1.572-0.367,2.36-1.483,2.648c0.933,0.235,1.411,0.838,1.411,1.809
		v1.951h-2.722V15.9c0-0.813-0.332-0.983-1.226-0.983h-4.917v2.437h-2.735V7.828h8.02C77.878,7.828,78.835,8.47,78.835,10.946
		 M95.328,10.147v1.442h6.816v2.005h-6.816v1.454h7.489v2.306h-10.21V7.828h10.207v2.319H95.328z"/>
</g>
</svg>
